<svg width="500px" height="525px" viewBox="0 0 500 500" xmlns="http://www.w3.org/2000/svg" preserveAspectRatio="xMidYMid meet">
    <defs>
      <clipPath id="formato">
        <path d="M46.75,0.807L46.75,0.807v227.992c0,208.528,203.24,270.395,203.24,270.395s203.26-61.866,203.26-270.395V0.807H46.75z"/>
      </clipPath>
    </defs>

    <g id="fundo" fill="#000000" x="0">
      <path d="M46.75,0.807L46.75,0.807v227.992c0,208.528,203.24,270.395,203.24,270.395s203.26-61.866,203.26-270.395V0.807H46.75z"/>
    </g>

    <g id="estampa1" fill="#000000" x="0" clip-path="url(#formato)"><defs><pattern id="Pattern" x="0" y="0" width="200" height="200" patternUnits="userSpaceOnUse"><rect x="100" y="0" width="100" height="100"/><rect x="0" y="100" width="100" height="100"/></pattern></defs><rect fill="url(#Pattern)" x="0" y="0" width="500" height="500" clip-path="url(#corte-formato)" /></g>

    <g id="borda" fill="none" stroke="#ff241d" stroke-width="10" x="0">
      <path d="M46.75,0.807L46.75,0.807v227.992c0,208.528,203.24,270.395,203.24,270.395s203.26-61.866,203.26-270.395V0.807H46.75z"/>
    </g>

    
<g id="adorno"></g>

</svg>
