<svg width="500px" height="525px" viewBox="0 0 500 500" xmlns="http://www.w3.org/2000/svg" preserveAspectRatio="xMidYMid meet">
    <defs>
      <clipPath id="formato">
        <path d="M46.75,0.807L46.75,0.807v227.992c0,208.528,203.24,270.395,203.24,270.395s203.26-61.866,203.26-270.395V0.807H46.75z"/>
      </clipPath>
    </defs>

    <g id="fundo" fill="#00b9ff" x="0">
      <path d="M46.75,0.807L46.75,0.807v227.992c0,208.528,203.24,270.395,203.24,270.395s203.26-61.866,203.26-270.395V0.807H46.75z"/>
    </g>

    <g id="estampa1" fill="#063780" x="0" clip-path="url(#formato)"><g><rect x="125" width="50" height="100%"/><rect x="225" width="50" height="100%"/><rect x="325" width="50" height="100%"/></g><rect id="estampa2" width="500" height="100" fill="#063780"/></g>

    <g id="borda" fill="none" stroke="#000000" stroke-width="10" x="0">
      <path d="M46.75,0.807L46.75,0.807v227.992c0,208.528,203.24,270.395,203.24,270.395s203.26-61.866,203.26-270.395V0.807H46.75z"/>
    </g>

    
<g id="adorno" transform="scale(2) translate(64, 65)" data-nome="bola com louros branca"> <path d="M12.0963 68.6877C14.3133 69.7641 16.5387 69.5979 18.0199 68.6793C17.4783 67.0011 16.0092 65.3828 13.9237 64.2752C11.8357 63.1748 9.61028 62.8782 8 63.5635C8.3498 65.5419 9.89133 67.6148 12.0963 68.6877Z" fill="white"/> <path d="M23.4373 63.2482C22.6899 65.2589 21.3064 66.9736 19.7254 67.6897C18.6677 66.3294 18.3659 64.108 19.1995 62.0182C20.0236 59.9247 21.7173 58.5534 23.3822 58.0882C24.1368 59.3645 24.1787 61.2168 23.4373 63.2482Z" fill="white"/> <path d="M16.6469 76.3631C19.0035 77.1023 21.1896 76.5894 22.5117 75.4517C21.7093 73.8685 20.0053 72.4852 17.7684 71.7038C15.5326 70.9321 13.2812 70.9791 11.8008 71.9145C12.4582 73.8228 14.3 75.6419 16.6469 76.3631Z" fill="white"/> <path d="M27.16 69.3218C26.7135 71.4284 25.5892 73.3285 24.1015 74.2835C22.817 73.1074 22.1735 70.9583 22.691 68.7727C23.1974 66.5798 24.6949 64.9627 26.3037 64.2362C27.2677 65.3819 27.5944 67.2066 27.16 69.3218Z" fill="white"/> <path d="M22.2476 83.2048C24.7522 83.5671 26.8791 82.7531 28.0397 81.4745C26.9707 80.0844 25.0347 79.0137 22.6428 78.5979C20.2608 78.1961 17.9978 78.5689 16.6377 79.6779C17.5927 81.4001 19.753 82.8611 22.2476 83.2048Z" fill="white"/> <path d="M31.4835 74.7377C31.3708 76.9178 30.5642 78.986 29.2519 80.1732C27.8098 79.1939 26.8541 77.1417 27.0227 74.8694C27.184 72.6031 28.4077 70.7503 29.8692 69.7795C30.9814 70.7773 31.5879 72.5477 31.4835 74.7377Z" fill="white"/> <path d="M28.8896 89.874C31.3867 89.8581 33.3378 88.702 34.2589 87.2023C32.9981 85.9182 30.9335 85.1044 28.5451 85.0264C26.1445 84.9728 24.0029 85.6965 22.8569 87.0548C24.0664 88.6983 26.4059 89.8825 28.8896 89.874Z" fill="white"/> <path d="M36.6247 79.6383C36.8497 81.8187 36.3545 83.9905 35.2224 85.3701C33.6527 84.6235 32.3702 82.738 32.2088 80.4675C32.0267 78.1884 32.9558 76.1635 34.2701 74.9764C35.5269 75.7982 36.3961 77.4517 36.6247 79.6383Z" fill="white"/> <path d="M35.8867 94.6248C38.3763 94.2469 40.1371 92.8172 40.8239 91.2153C39.3689 90.1503 37.1827 89.6641 34.7856 89.9589C32.3874 90.2538 30.3541 91.2912 29.4219 92.7871C30.8843 94.2072 33.3997 95.0195 35.8867 94.6248Z" fill="white"/> <path d="M42.2508 83.6935C42.7701 85.7842 42.6221 88.0009 41.7616 89.5276C40.1876 89.0285 38.7292 87.3819 38.2388 85.1811C37.7427 82.9766 38.3255 80.8517 39.3849 79.4803C40.6756 80.092 41.7292 81.5869 42.2508 83.6935Z" fill="white"/> <path d="M44.2042 98.828C46.5365 98.0253 48.0082 96.2555 48.4253 94.4679C46.8625 93.5836 44.6932 93.4256 42.4209 94.1111C40.1761 94.8055 38.3783 96.216 37.7144 97.9284C39.3323 99.1809 41.8743 99.6269 44.2042 98.828Z" fill="white"/> <path d="M48.635 86.5622C49.5451 88.5114 49.7403 90.6791 49.0381 92.2992C47.2346 92.0746 45.3618 90.7091 44.4748 88.6531C43.5762 86.5886 43.8714 84.4401 44.8111 82.9449C46.3296 83.3244 47.716 84.6082 48.635 86.5622Z" fill="white"/> <path d="M53.0054 101.168C55.2346 100.085 56.4477 98.2448 56.5998 96.5521C54.9109 95.9831 52.706 96.1704 50.5328 97.134C48.3717 98.1117 46.7777 99.6713 46.3604 101.333C48.1795 102.233 50.7956 102.264 53.0054 101.168Z" fill="white"/> <path d="M55.6743 88.7471C56.815 90.5468 57.326 92.6732 56.9311 94.3765C55.2327 94.4235 53.2997 93.3338 52.165 91.4219C51.0172 89.5113 50.9586 87.3355 51.5929 85.7166C53.0543 85.8696 54.5253 86.9401 55.6743 88.7471Z" fill="white"/> <path d="M96.682 63.2482C97.433 65.2589 98.8033 66.9736 100.402 67.6897C101.453 66.3294 101.751 64.108 100.917 62.0182C100.097 59.9247 98.4044 58.5534 96.7383 58.0882C95.9825 59.3645 95.9478 61.2168 96.682 63.2482Z" fill="white"/> <path d="M107.903 68.6877C105.687 69.7641 103.46 69.5979 101.98 68.6793C102.535 67.0011 103.99 65.3828 106.079 64.2752C108.17 63.1748 110.388 62.8782 112 63.5635C111.656 65.5419 110.105 67.6148 107.903 68.6877Z" fill="white"/> <path d="M92.8417 69.3218C93.2799 71.4284 94.4085 73.3285 95.8971 74.2835C97.1787 73.1074 97.8239 70.9583 97.3134 68.7727C96.7944 66.5798 95.3022 64.9627 93.6949 64.2362C92.7303 65.3819 92.4059 67.2066 92.8417 69.3218Z" fill="white"/> <path d="M103.349 76.3631C100.991 77.1023 98.8102 76.5894 97.4883 75.4517C98.2967 73.8685 99.9944 72.4852 102.23 71.7038C104.47 70.9321 106.714 70.9791 108.199 71.9145C107.549 73.8228 105.703 75.6419 103.349 76.3631Z" fill="white"/> <path d="M88.5173 74.7377C88.6277 76.9178 89.4409 78.986 90.7603 80.1732C92.1913 79.1939 93.1441 77.1417 92.9778 74.8694C92.8176 72.6031 91.5953 70.7503 90.1328 69.7795C89.0137 70.7773 88.4092 72.5477 88.5173 74.7377Z" fill="white"/> <path d="M97.7501 83.2048C95.2628 83.5671 93.1219 82.7531 91.96 81.4745C93.0291 80.0844 94.9658 79.0137 97.359 78.5979C99.7436 78.1961 102.006 78.5689 103.362 79.6779C102.402 81.4001 100.244 82.8611 97.7501 83.2048Z" fill="white"/> <path d="M83.7187 79.6383C83.5011 81.8187 83.9864 83.9905 85.121 85.3701C86.7019 84.6235 87.9661 82.738 88.136 80.4675C88.3218 78.1884 87.3926 76.1635 86.0771 74.9764C84.8166 75.7982 83.9437 77.4517 83.7187 79.6383Z" fill="white"/> <path d="M91.8019 89.874C89.3052 89.8581 87.356 88.702 86.4321 87.2023C87.6884 85.9182 89.7525 85.1044 92.1563 85.0264C94.5443 84.9728 96.6976 85.6965 97.8341 87.0548C96.6304 88.6983 94.284 89.8825 91.8019 89.874Z" fill="white"/> <path d="M78.0959 83.6935C77.5712 85.7842 77.7272 88.0009 78.5883 89.5276C80.1591 89.0285 81.6236 87.3819 82.1056 85.1811C82.6014 82.9766 82.0247 80.8517 80.9682 79.4803C79.669 80.092 78.6207 81.5869 78.0959 83.6935Z" fill="white"/> <path d="M84.119 94.6248C81.6347 94.2469 79.8679 92.8172 79.1763 91.2153C80.6336 90.1503 82.8183 89.6641 85.2237 89.9589C87.6156 90.2538 89.6486 91.2912 90.5783 92.7871C89.1148 94.2072 86.5996 95.0195 84.119 94.6248Z" fill="white"/> <path d="M71.3583 86.5622C70.4614 88.5114 70.2583 90.6791 70.9574 92.2992C72.7719 92.0746 74.6404 90.7091 75.5271 88.6531C76.4215 86.5886 76.1298 84.4401 75.1904 82.9449C73.6715 83.3244 72.2823 84.6082 71.3583 86.5622Z" fill="white"/> <path d="M76.1415 98.828C73.8032 98.0253 72.3363 96.2555 71.9204 94.4679C73.4785 93.5836 75.6561 93.4256 77.9117 94.1111C80.1685 94.8055 81.9614 96.216 82.6314 97.9284C81.0062 99.1809 78.4678 99.6269 76.1415 98.828Z" fill="white"/> <path d="M64.6657 88.7471C63.5278 90.5468 63.0235 92.6732 63.4116 94.3765C65.1113 94.4235 67.0481 93.3338 68.1848 91.4219C69.3263 89.5113 69.3886 87.3355 68.7502 85.7166C67.2925 85.8696 65.8192 86.9401 64.6657 88.7471Z" fill="white"/> <path d="M67.1113 101.168C64.9323 100.085 63.7469 98.2448 63.5981 96.5521C65.2572 95.9831 67.4077 96.1704 69.5308 97.134C71.6468 98.1117 73.1999 99.6713 73.6069 101.333C71.8301 102.233 69.2738 102.264 67.1113 101.168Z" fill="white"/> <g clip-path="url(#clip0_1693_71728)"> <path d="M42.3348 28.8476L49.921 22.3979L57.718 26.31V31.3851L48.6567 38.1519L42.967 36.566L42.3348 28.8476Z" fill="white"/> <path d="M39.2793 38.8921L38.8578 29.482C34.1375 33.7958 33.0277 43.4738 33.0628 47.7735L39.2793 38.8921Z" fill="white"/> <path d="M47.0754 62.9988L37.8034 61.3071C42.2708 67.651 49.7095 71.2811 52.8704 72.3032L47.0754 62.9988Z" fill="white"/> <path d="M66.6731 72.9376L72.4681 62.5759L82.4777 60.2498C80.539 66.0016 71.1335 71.1049 66.6731 72.9376Z" fill="white"/> <path d="M51.3953 62.0473L53.8187 58.6638H66.6731L69.5179 62.5759L64.5658 70.1886H56.2421L51.3953 62.0473Z" fill="white"/> <path d="M80.4758 39.1035V28.0017C86.2076 32.4848 87.1488 41.4296 86.903 45.3417L80.4758 39.1035Z" fill="white"/> <path d="M62.7746 25.5699L69.5179 22.3979L77.6309 28.0017V37.6233L73.4164 39.5265L62.7746 31.3851V25.5699Z" fill="white"/> <path d="M59.8251 23.4555L50.7638 20.2835C55.737 17.2384 64.8475 18.7328 68.7811 19.8606L59.8251 23.4555Z" fill="white"/> <path d="M35.9067 48.831L41.0696 42.1699L46.127 44.0731L49.9209 54.752L47.0753 59.4042L39.2792 57.6067L35.9067 48.831Z" fill="white"/> <path d="M72.468 59.8271L70.15 55.5978L74.4699 43.6502L79.6328 42.0642L84.9009 48.9368L82.4776 56.9723L72.468 59.8271Z" fill="white"/> <path d="M66.9891 54.1176H53.8186L49.9209 42.4871L60.1404 34.7687L70.15 42.1699L66.9891 54.1176Z" fill="white"/> </g> <defs> <clipPath id="clip0_1693_71728"> <rect width="56" height="56" fill="white" transform="translate(32 18)"/> </clipPath> </defs> </g>

</svg>
