<svg width="500px" height="525px" viewBox="0 0 500 500" xmlns="http://www.w3.org/2000/svg" preserveAspectRatio="xMidYMid meet">
    <defs>
      <clipPath id="formato">
        <path d="M46.75,0.807L46.75,0.807v227.992c0,208.528,203.24,270.395,203.24,270.395s203.26-61.866,203.26-270.395V0.807H46.75z"/>
      </clipPath>
    </defs>

    <g id="fundo" fill="#063780" x="0">
      <path d="M46.75,0.807L46.75,0.807v227.992c0,208.528,203.24,270.395,203.24,270.395s203.26-61.866,203.26-270.395V0.807H46.75z"/>
    </g>

    <g id="estampa1" fill="#80007f" x="0" clip-path="url(#formato)"><g><rect x="125" width="50" height="100%"/><rect x="225" width="50" height="100%"/><rect x="325" width="50" height="100%"/></g><rect id="estampa2" width="500" height="100" fill="#80007f"/></g>

    <g id="borda" fill="none" stroke="#000000" stroke-width="10" x="0">
      <path d="M46.75,0.807L46.75,0.807v227.992c0,208.528,203.24,270.395,203.24,270.395s203.26-61.866,203.26-270.395V0.807H46.75z"/>
    </g>

    
<g id="adorno" transform="scale(2) translate(64, 65)" data-nome="trofeu colorido">
    <path fill-rule="evenodd" clip-rule="evenodd" d="M91.7199 12H29.3199V26.2636L12.9999 27.7756C12.9999 27.7756 12.1399 46.8994 17.3199 55.0244C22.4999 63.1494 42.8976 72.2947 42.8976 72.2947L56.1999 85.1415C56.1999 85.1415 57.3999 87.9927 56.1999 93.7463C54.9999 99.5 51.4999 101.873 48.5199 101.873C45.5399 101.873 32.6799 101.873 32.6799 101.873V110H88.8399V101.873C88.8399 101.873 79.9999 101.873 75.3999 101.873C70.7998 101.873 64.8399 100 64.8399 93.7463C64.8399 87.4927 64.8399 85.1415 64.8399 85.1415L76.4715 73.9082C76.4715 73.9082 101.86 64.0488 104.68 55.0244C107.5 46 109 27.7756 109 27.7756L91.7199 26.1747V12ZM37.7395 63.1494C37.7395 63.1494 29.3199 50 29.3199 41.639C29.3199 33.278 29.3199 33.5122 29.3199 33.5122H19.7199C19.7199 33.5122 19.6199 44.9 23.5599 51.2C27.4999 57.5 37.7395 63.1494 37.7395 63.1494ZM98.4399 51.2C95.8799 56.9 82.8277 64.3566 82.8277 64.3566C82.8277 64.3566 90.4999 51.2 91.7199 41.639C92.9399 32.078 91.7199 33.5122 91.7199 33.5122H102.28C102.28 33.5122 101 45.5 98.4399 51.2Z" fill="#EFD04A"/>
    <path d="M88 15.5C87.2 55.1 70 76 61.5 81.5V15.5H88Z" fill="#F3EFAE"/>
</g>

</svg>
