<svg width="400px" height="400px" viewBox="30 25 130 130" id="camisa" preserveAspectRatio="xMidYMid meet" xmlns="http://www.w3.org/2000/svg" xmlns:xlink="http://www.w3.org/1999/xlink">
    <defs>
        <clipPath id="formato">
            <path d="m130.9,40.93c-20.05691,-9.93 -36.27935,-8.655 -36.27935,-8.655s-16.22145,-1.274 -36.27935,8.655c-4.79458,6.571 -2.21839,26.504 0.43433,36.786c0,0 2.60303,28.349 2.74515,34.213c0.30413,12.52 0,36.455 0,36.455l0.01789,0.015c0.36576,5.592 14.91348,5.918 33.08297,5.962c18.16949,-0.044 32.71721,-0.37 33.08297,-5.962l0.0169,-0.015c0,0 -0.30413,-23.936 0,-36.455c0.14312,-5.864 2.74615,-34.213 2.74615,-34.213c3.05823,-13.286 4.55107,-32.354 0.43235,-36.786z"/>
        </clipPath>

        
            
        <g id="patrocinador-peito">
            <rect id="gatomestre" class="rect-patrocinador" width="50" height="29" x="-229.378" y="-70.197" fill="#F1F1EF" rx="3" transform="translate(229.378 70.197)"/><g><path style="stroke:none;stroke-width:1;stroke-dasharray:none;stroke-linecap:butt;stroke-dashoffset:0;stroke-linejoin:miter;stroke-miterlimit:4;fill:#214001;fill-rule:nonzero;opacity:1" transform="matrix(.45 0 0 .45 7 1.725)" d="M47.195 17.47H45.97v1.257h1.225V17.47ZM27.607 17.47h-1.225v1.257h1.224V17.47Z"/><path style="stroke:none;stroke-width:1;stroke-dasharray:none;stroke-linecap:butt;stroke-dashoffset:0;stroke-linejoin:miter;stroke-miterlimit:4;fill:#214001;fill-rule:nonzero;opacity:1" transform="matrix(.45 0 0 .45 7 1.725)" d="M20.262 13.698v2.515h1.224v1.257h1.225v1.257h1.224v1.258h1.224v1.258h7.345v-1.258h1.224v-1.258h1.224V17.47h1.224v-1.257h1.225v-1.258h2.448v1.257h1.224v1.257h1.224v1.258h1.225v1.257h1.224v1.258h7.345v-1.258h1.224v-1.257h1.224v-1.258h1.224v-1.257h1.224v-2.515H20.262Zm9.793 6.286h-1.224v-1.257h-1.224v1.257h-1.224v-1.257h-1.224v-1.258h1.224v-1.257H25.16v-1.257h1.224v1.257h1.224v1.257h1.224v1.258h1.225v1.257h-.001Zm19.587 0h-1.225v-1.257h-1.224v1.257H45.97v-1.257h-1.224v-1.258h1.224v-1.257h-1.224v-1.257h1.224v1.257h1.224v1.257h1.224v1.258h1.225v1.257ZM26.184 12.264h.003a43.814 43.814 0 0 1 2.882-.036c2.087.038 4.887.227 6.935.884 0 0-3.395-2.196-9.04-1.837.407-.47.918-.996 1.522-1.493.219-.18.46-.359.708-.53-1.54.063-2.638.483-2.638.483 1.382-1.728 4.65-1.718 4.65-1.718l-.07-.085c-.5-.338-1.987-.57-3.452-.394 0 0 1.318-.955 2.3-.939-.073-.079-2.012-1.237-4.054-.75 0 0 1.302-.923 2.359-.907l-.012-.01c-.088-.074-1.556-1.275-3.07-.691 0 0 .501-.595 1.443-.581-.929-.619-1.686-.897-2.028-.611-.678.564-.479 5.145.393 7.943-1.671-3.89-2.256-8.25-1.087-9.041.146-.099.345-.149.59-.149 1.68 0 4.962 2.282 7.474 5.194l.379.439.544-.178c.804-.261 1.118-.367 1.985-.511a5.03 5.03 0 0 1 1.885 2.265s.56-1.208.772-2.3c0 0 .156 1.686 1.068 3.414.912-1.728 1.069-3.415 1.069-3.415.212 1.093.771 2.3.771 2.3s.507-1.387 1.885-2.264c.867.145 1.181.25 1.985.511l.544.178.378-.439c2.512-2.912 5.796-5.194 7.475-5.194.245 0 .443.05.589.149 1.169.792.584 5.15-1.087 9.04.871-2.797 1.07-7.378.394-7.942-.343-.286-1.1-.008-2.03.61.943-.013 1.445.582 1.445.582-1.514-.584-2.983.617-3.07.69l-.012.01c1.057-.015 2.358.908 2.358.908-2.041-.487-3.98.671-4.054.75.982-.016 2.3.94 2.3.94-1.464-.177-2.95.055-3.451.393l-.07.085s3.269-.01 4.65 1.718c0 0-1.099-.42-2.638-.484.247.172.489.352.708.53a12.677 12.677 0 0 1 1.521 1.494c-5.644-.36-9.039 1.837-9.039 1.837 2.048-.657 4.848-.846 6.935-.884 1.648-.03 2.849.034 2.882.036h.003c.932.077 1.747.185 2.393.289 1.598-3.418 3.65-10.195.828-12.107C53.85.15 53.327 0 52.733 0c-2.468 0-5.996 2.708-8.41 5.372-1.772-.517-3.68-.781-5.68-.79h-.035c-2 .009-3.908.273-5.681.79C30.514 2.708 26.985 0 24.517 0c-.594 0-1.116.15-1.554.446-2.823 1.912-.77 8.689.828 12.107.646-.104 1.46-.212 2.393-.29ZM25.08 30.363c.155-.09.31-.192.474-.283l.507-.276c.173-.092.343-.196.521-.287.18-.09.362-.182.545-.277.362-.193.741-.367 1.117-.546a9.47 9.47 0 0 1 .567-.262l.566-.255c.379-.16.75-.32 1.112-.472.365-.143.713-.296 1.051-.422.336-.134.653-.26.95-.371l.808-.307.628-.23.39-.144.161-.06s-.061 0-.172.004a11.983 11.983 0 0 0-1.087.098c-.256.04-.55.075-.862.143-.157.03-.321.064-.491.098-.169.036-.342.082-.521.125-.359.084-.73.2-1.114.316-.178.051-.354.118-.534.18-.944.163-2.004.395-3.107.726.134.153.272.305.412.454-.09.049-.18.098-.267.15-.372.205-.733.42-1.068.65l-.496.334c-.16.115-.31.235-.456.35-.293.232-.572.446-.804.678-.24.22-.454.43-.642.614-.18.195-.327.375-.45.519-.148.176-.254.307-.314.384l-.062.078s.185-.115.493-.328c.153-.107.339-.236.547-.387.22-.137.467-.29.73-.466.257-.18.561-.34.868-.528ZM28.82 30.83c.16-.134.326-.262.495-.386l.495-.378.981-.716c.325-.224.631-.454.932-.653.298-.207.58-.403.844-.58l.721-.485.562-.369.493-.324s-.21.046-.567.163c-.179.056-.393.131-.637.225-.242.097-3.413 1.188-5.058 2.049.18.163.364.323.55.477-.116.087-.233.171-.346.264-.336.274-.677.541-.987.838-.32.285-.623.577-.9.88l-.41.439c-.13.148-.25.3-.369.445-.235.293-.46.566-.636.845-.186.27-.349.523-.492.747-.133.23-.237.44-.325.61-.055.105-.1.196-.139.273-.083.17-.127.265-.127.265s.154-.156.408-.434c.127-.14.279-.308.449-.503.185-.184.392-.39.609-.622.212-.236.473-.461.732-.714.132-.124.26-.258.4-.386l.434-.385c.149-.129.291-.27.446-.4.156-.128.314-.26.47-.394.312-.273.644-.53.972-.79ZM32.262 30.23l.767-.694c.255-.218.493-.44.73-.639l.66-.573 1.221-1.04.166-.142s-.074.023-.205.07a9.568 9.568 0 0 0-.796.34c-.2.1-.43.206-.666.346l-.374.21a9.32 9.32 0 0 0-.249.153l.05-.038a29.44 29.44 0 0 0-3.789 2.51c.14.1.281.193.423.287-.026.028-.054.055-.078.084-.247.27-.48.545-.688.827l-.31.411c-.097.139-.186.279-.273.414-.173.27-.338.524-.462.779-.133.247-.246.48-.346.683a7.468 7.468 0 0 0-.046.111c-.068.166-.122.315-.17.44-.115.308-.17.485-.17.485s.124-.143.322-.396c.099-.127.218-.28.35-.458.144-.168.307-.358.474-.57.164-.215.37-.425.57-.659.103-.114.201-.238.311-.356l.338-.36c.116-.12.226-.25.346-.373.122-.121.245-.246.367-.372.241-.254.5-.5.756-.748.247-.256.52-.485.771-.733ZM54.43 31.61c-.124-.144-.27-.325-.452-.52-.188-.184-.4-.393-.64-.613-.234-.232-.512-.446-.805-.678-.147-.114-.297-.235-.456-.35l-.496-.333a11.949 11.949 0 0 0-1.069-.65 6.26 6.26 0 0 0-.266-.15c.14-.15.279-.301.413-.455a26.719 26.719 0 0 0-3.108-.725c-.18-.063-.355-.13-.533-.18-.385-.117-.756-.232-1.115-.317-.179-.042-.352-.088-.52-.125-.17-.034-.333-.067-.491-.097-.313-.068-.606-.103-.863-.144a11.86 11.86 0 0 0-1.087-.098c-.11-.003-.172-.002-.172-.002l.16.06c.095.033.225.082.392.143l.628.23.808.307c.296.112.614.237.949.37.337.126.687.28 1.051.423l1.113.472.565.255c.191.081.38.168.567.262.377.18.756.353 1.118.546.182.095.364.187.544.276.179.092.349.195.522.287l.506.277c.166.09.32.193.475.283.306.187.61.346.868.527.262.176.509.33.73.466.208.15.393.28.547.387.307.212.492.328.492.328l-.061-.078a17.97 17.97 0 0 0-.315-.384ZM53.08 34.92c-.088-.168-.192-.378-.325-.61-.143-.223-.305-.475-.491-.746-.177-.28-.401-.552-.636-.845-.118-.146-.238-.298-.368-.446-.135-.143-.271-.29-.41-.439-.277-.302-.581-.593-.9-.879-.31-.298-.65-.564-.988-.839-.112-.092-.23-.177-.345-.263.186-.155.37-.314.55-.478-1.645-.86-4.817-1.95-5.058-2.049a12.768 12.768 0 0 0-.638-.225c-.356-.116-.566-.163-.566-.163a408.483 408.483 0 0 0 1.054.695c.215.143.457.307.721.484.264.177.547.372.845.58.3.2.607.43.932.652l.98.716.496.379c.168.124.335.251.495.386.328.261.66.518.97.79.157.133.314.265.47.394.155.13.297.271.446.4l.434.385c.14.127.269.261.4.386.259.253.52.478.733.714.216.23.424.438.608.621.171.196.324.364.45.503.253.279.407.434.407.434s-.044-.096-.127-.264a42.05 42.05 0 0 0-.138-.272ZM49.254 34.329a4.064 4.064 0 0 0-.047-.111 17.858 17.858 0 0 0-.345-.683c-.124-.255-.29-.509-.462-.78-.087-.135-.176-.275-.273-.412l-.31-.412a10.2 10.2 0 0 0-.689-.828c-.025-.029-.052-.056-.077-.084.141-.094.283-.187.422-.286a29.567 29.567 0 0 0-3.79-2.51c.017.012.034.024.05.038a9.32 9.32 0 0 0-.248-.153l-.374-.21c-.237-.14-.467-.245-.666-.346a9.708 9.708 0 0 0-.796-.34c-.132-.048-.205-.07-.205-.07l.165.141 1.222 1.041.66.573c.237.198.475.42.73.639l.767.693c.25.246.524.476.773.732.255.249.515.494.756.748.122.127.244.25.367.372.12.123.23.252.346.373l.338.36c.11.118.208.241.31.356.201.234.407.444.57.659.168.211.33.401.475.57a22.056 22.056 0 0 0 .671.853s-.054-.177-.169-.484c-.05-.124-.103-.274-.171-.44ZM23.596 28.178c.169-.058.339-.127.518-.185l.548-.172c.188-.056.373-.126.565-.18.194-.053.39-.108.586-.165.391-.12.796-.215 1.199-.319.2-.057.401-.103.604-.147l.602-.14 1.179-.247c.385-.069.755-.152 1.11-.209.354-.066.69-.127 1-.18l.851-.142.66-.105.453-.071.125-.02s-.044-.01-.125-.023a11.864 11.864 0 0 0-1.128-.123c-.204-.01-.43-.025-.67-.028-.067-.001-.134-.002-.204 0l-.148-.001a2.15 2.15 0 0 1-.052-1.268l-1.26.079c-.297.03-1.136.497-3.018.237-1.61-.222-3.05-1.457-3.676-2.823a15.062 15.062 0 0 0 2.292 4.68l-.036.012a12.18 12.18 0 0 0-1.169.43l-.548.231c-.177.08-.347.17-.512.254-.33.17-.643.327-.915.508-.277.17-.525.333-.743.48-.213.155-.392.303-.539.421-.275.223-.434.362-.452.38l.07-.027c.086-.035.249-.101.471-.2.17-.074.377-.165.61-.273.241-.09.512-.194.802-.315.285-.127.613-.224.95-.349ZM55.566 28.54a24.018 24.018 0 0 0-.743-.48c-.271-.18-.585-.337-.915-.508-.165-.084-.335-.173-.512-.254l-.548-.231a12.447 12.447 0 0 0-1.17-.43c-.011-.005-.024-.008-.035-.012a15.075 15.075 0 0 0 2.291-4.68c-.625 1.366-2.066 2.6-3.675 2.823-1.882.26-2.722-.208-3.018-.238h.093l-1.417-.089c.022.004.041.009.063.012.09.357.118.799-.052 1.267h-.351c-.242.005-.466.02-.67.029a12.402 12.402 0 0 0-1.129.123l-.125.023.125.02.454.072.659.104.851.143c.31.052.646.113 1 .179.355.058.726.14 1.11.21l1.18.246.602.14c.202.043.404.09.604.147.403.103.808.2 1.199.319.196.057.392.112.585.164.193.055.378.124.565.18l.548.172c.18.058.35.127.518.186.337.124.664.221.951.348.29.121.561.224.803.316.232.107.438.197.609.273.221.097.384.164.471.199l.07.026a14.115 14.115 0 0 0-.452-.38c-.147-.116-.326-.264-.539-.42Z"/><path style="stroke:none;stroke-width:1;stroke-dasharray:none;stroke-linecap:butt;stroke-dashoffset:0;stroke-linejoin:miter;stroke-miterlimit:4;fill:#214001;fill-rule:nonzero;opacity:1" transform="matrix(.45 0 0 .45 7 1.725)" d="M41.49 28.223a4.123 4.123 0 0 1-.827-.325 3.9 3.9 0 0 1-.711-.491 4.269 4.269 0 0 1-.564-.586c-.074-.104-.153-.204-.219-.305-.062-.103-.128-.201-.181-.3a7.578 7.578 0 0 1-.072-.135c1.109-1.638 2.21-1.655 2.305-2.27l.007.004.52-1.778-.625-.976-.708 1.9c-.462-.236-.87-.16-1.774-.163v-.001h-.035c-.904.005-1.312-.073-1.774.163l-.708-1.9-.626.977.52 1.778.008-.003c.095.614 1.196.631 2.304 2.27l-.071.135c-.053.097-.119.195-.181.299-.065.101-.145.2-.219.305-.166.2-.346.405-.564.586-.207.19-.457.346-.711.491-.26.142-.542.24-.829.325-.127.03-.256.053-.386.071a25.023 25.023 0 0 0-4.01 3.434c2.305 1.286 4.81 2 7.245 2.018v.001h.035v-.001c2.434-.019 4.94-.732 7.246-2.018a25.022 25.022 0 0 0-4.011-3.434 4.033 4.033 0 0 1-.383-.071Zm.495 2.424c-1.04 1.454-2.986 1.487-3.36 1.51-.374-.023-2.32-.056-3.36-1.51-.112-.159-.237-.746-.237-.746.397-.023.79-.086 1.16-.216.207-.08.416-.156.602-.27.095-.054.191-.102.28-.162.088-.06.174-.125.258-.187.072-.056.13-.127.206-.174.25-.153.563-.419 1.091-.419.449 0 .841.267 1.092.42.075.046.134.117.204.173.085.063.17.127.259.187.088.06.185.108.28.163.186.113.394.19.602.269.37.13.763.193 1.16.216 0 0-.124.587-.237.746Z"/><path style="stroke:none;stroke-width:1;stroke-dasharray:none;stroke-linecap:butt;stroke-dashoffset:0;stroke-linejoin:miter;stroke-miterlimit:4;fill:#214001;fill-rule:nonzero;opacity:1" transform="matrix(.45 0 0 .45 7 1.725)" d="m35.5 22.037-.93-2.92h.382l1.173 1.943-.625.977ZM41.747 22.037l.932-2.92h-.384l-1.173 1.943.625.977ZM33.596 22.958s-1.49.3-2.267-.363c0 0 .537.092 1.244-.018a5.034 5.034 0 0 1-.368-.178 5.63 5.63 0 0 1-.698-.454h-8.192l.25.485.268.717 1.326 1.874 2.293 1.434 1.878-.507 1.377-.823c.09.37.198.63.313.694.18.099.502-.097.873-.462-.43.091-.709-.135-.709-.135.74.13 1.307-.55 1.34-.592l.005-.006c-.48.103-1.153-.2-1.153-.2.972.037 1.757-.666 1.784-.709-.447.096-1.13-.22-1.13-.22.683-.052 1.341-.292 1.541-.492l.025-.045ZM47.206 21.946h-1.469c-.202.152-.432.31-.698.453-.115.062-.241.122-.368.178.707.11 1.244.018 1.244.018-.779.663-2.268.364-2.268.364l.025.044c.2.2.858.44 1.54.492 0 0-.683.317-1.13.22.027.043.812.747 1.785.709 0 0-.673.304-1.154.2l.005.006c.033.042.6.722 1.34.593 0 0-.28.226-.708.134.37.367.692.561.873.462.114-.063.222-.324.312-.693l1.377.822 1.878.507 2.292-1.433 1.326-1.875.268-.717.25-.484h-6.72ZM7.08 50.914H3.537v2.662h.884v1.774H2.652v-7.098H4.42v1.783h2.652v-2.67L5.304 45.59H1.768L0 47.365v8.873l1.768 1.774h3.536l1.777-1.774v-5.324ZM7.62 47.365v10.647h2.652v-4.436h1.768v4.436h2.652V47.365l-1.768-1.775H9.388L7.62 47.365Zm2.652 3.549v-2.662h1.768v2.662h-1.768ZM17.432 48.252v9.76h2.652v-9.76h2.219V45.59h-7.08v2.662h2.209ZM22.842 47.365v8.873l1.768 1.774h3.536l1.768-1.774v-8.873l-1.768-1.775H24.61l-1.768 1.775Zm4.42.887v7.098h-1.768v-7.098h1.768ZM37.11 48.252v9.76h2.669v-9.76h1.308v9.76h2.652V47.365l-1.768-1.775h-2.81l-.726.736-.733-.736h-2.803l-1.767 1.775v10.647h2.651v-9.76h1.326ZM50.458 55.35h-3.536v-2.218h3.536V50.47h-3.536v-2.218h3.536V45.59H44.27v12.422h6.188V55.35ZM56.292 50.337H53.64v-2.085h1.768v1.198h.31v-.009h2.032v.009h.31v-2.085l-1.768-1.775h-3.536l-1.768 1.775v3.86l1.768 1.774h2.652v2.351H53.64v-1.464h-.31v.01h-2.033v-.01h-.31v2.352l1.769 1.774h3.536l1.768-1.774v-4.126l-1.768-1.775ZM60.8 48.252v9.76h2.652v-9.76h2.219V45.59h-7.08v2.662H60.8ZM70.639 50.293h-1.777v-2.068h1.777v2.068Zm-.01 2.706v5.013h2.653v-5.634l-.734-.728.734-.736v-3.55l-1.768-1.774H66.21v12.396h2.652v-4.987h1.768ZM80 55.35h-3.536v-2.218H80V50.47h-3.536v-2.218H80V45.59h-6.188v12.422H80V55.35Z"/></g>
        </g>

        <g id="patrocinador-manga">
            <rect class="rect-patrocinador" id="ge" width="50" height="29" x="-229.378" y="-70.197" fill="#F1F1EF" rx="3" transform="translate(229.378 70.197)"/><path fill="#06aa48" fill-rule="evenodd" d="M-200.948-59.381c.318-1.139 1.294-1.963 2.663-1.963 1.124 0 2.101.702 2.419 1.963h-5.082zm2.59-4.46c-3.079 0-5.621 2.522-5.621 5.817 0 3.37 2.542 5.818 5.792 5.818 2.614 0 4.569-1.139 5.253-3.199.122-.365-.049-.631-.464-.631h-1.857c-.318 0-.513.121-.709.387-.464.607-1.148.873-2.101.873-1.49 0-2.614-.945-2.908-2.375h7.698c.365 0 .586-.218.586-.582v-.024c0-3.393-2.126-6.084-5.669-6.084zm-11.967 8.774c-1.539 0-2.834-1.211-2.834-2.981 0-1.793 1.295-2.981 2.834-2.981 1.54 0 2.81 1.188 2.81 2.982 0 1.769-1.27 2.981-2.81 2.981m5.156-8.58h-1.661c-.367 0-.586.217-.586.581v.63c-.661-.799-1.882-1.406-3.104-1.406-2.981 0-5.547 2.522-5.547 5.817 0 3.296 2.419 5.576 5.473 5.576a4.15 4.15 0 003.03-1.286c-.024 2.303-1.246 3.345-3.347 3.345-1.124 0-2.175-.339-3.397-1.114-.317-.219-.684-.146-.855.193l-.733 1.431c-.171.339-.122.654.22.872 1.515.97 3.299 1.454 4.838 1.454 4.032 0 6.256-2.157 6.256-7.126v-8.386c0-.364-.221-.581-.587-.581" transform="translate(229.378 70.197)"/>
        </g>
        
    </defs>

    <g id="fundo" fill="#000000">
        <path stroke="#bbbbbb" stroke-width="0.4" d="M159.391,79.436c0,0-9.883-19.023-12.992-25.766c-1.852-4.018-4.025-7.83-7.632-10.208h-0.004 c-23.493-14.487-44.08-12.878-44.08-12.878s-20.586-1.609-44.081,12.878h-0.003c-3.606,2.378-5.781,6.19-7.633,10.208 c-3.109,6.742-12.991,25.766-12.991,25.766c-0.683,1.445,0.358,3.501,2.515,5.479c1.415,1.299,3.312,2.565,5.52,3.605 c1.348,0.638,2.688,1.129,3.961,1.476c2.583,0.707,4.884,0.813,6.418,0.307c0.835-0.275,1.439-0.73,1.739-1.368 c0,0,7.333-12.723,8.591-13.036c0,0,2.611,28.269,2.754,34.118c0.305,12.484,0,36.354,0,36.354l0.018,0.016 c0.367,5.574,14.964,5.9,33.193,5.943c18.23-0.043,32.826-0.369,33.193-5.943l0.018-0.016c0,0-0.306-23.869,0-36.354 c0.142-5.85,2.754-34.118,2.754-34.118c1.258,0.313,8.59,13.036,8.59,13.036c0.301,0.638,0.905,1.093,1.739,1.368 c1.535,0.507,3.836,0.4,6.417-0.307c1.274-0.347,2.615-0.838,3.963-1.476c2.208-1.04,4.105-2.307,5.52-3.605 C159.032,82.937,160.073,80.881,159.391,79.436z"/>
        <path fill="#E6E6E5" d="M39.667,85.233c-4.087-1.885-7.205-4.713-8.773-7.609c-0.577,1.112-0.918,1.771-0.918,1.771 c-0.684,1.444,0.357,3.5,2.514,5.479c1.415,1.299,3.312,2.565,5.52,3.605c1.348,0.637,2.688,1.127,3.961,1.475 c2.583,0.706,4.884,0.813,6.418,0.305c0.835-0.274,1.439-0.729,1.74-1.365c0,0,0.449-0.78,1.143-1.957 C48.032,87.665,43.806,87.142,39.667,85.233z"/>
        <path fill="#E6E6E5" d="M149.698,85.233c4.087-1.886,7.205-4.714,8.774-7.611c0.576,1.114,0.918,1.773,0.918,1.773 c0.683,1.444-0.358,3.5-2.514,5.478c-1.416,1.299-3.312,2.564-5.52,3.605c-1.349,0.637-2.688,1.128-3.963,1.476 c-2.581,0.706-4.883,0.813-6.417,0.305c-0.835-0.274-1.438-0.729-1.74-1.365c0,0-0.449-0.781-1.143-1.957 C141.333,87.663,145.56,87.142,149.698,85.233z"/>
        <path opacity="0.5" fill="#cccccc" d="M155.132,81.709c-1.508,1.344-3.342,2.557-5.435,3.523c-4.138,1.909-8.365,2.43-11.604,1.703 c0.693,1.176,1.143,1.957,1.143,1.957c0.302,0.636,0.905,1.091,1.74,1.365c1.534,0.509,3.836,0.401,6.417-0.305 c1.274-0.348,2.614-0.839,3.963-1.476c1.994-0.94,3.731-2.065,5.092-3.231C156.1,83.989,155.657,82.805,155.132,81.709z"/> <path opacity="0.5" fill="#cccccc" d="M32.615,84.983c0.287-1.232,0.789-2.383,1.47-3.406c-1.365-1.242-2.452-2.59-3.19-3.953 c-0.577,1.112-0.918,1.771-0.918,1.771c-0.684,1.444,0.357,3.5,2.514,5.479C32.529,84.91,32.574,84.946,32.615,84.983z"/>
        <path d="M94.471,25.556c-11.192,0-20.265,1.963-20.265,8.331c0,4.739,7.006,5.746,13.727,9.551h0.096 c0,0.021-0.004,0.041-0.004,0.062c0,3.516,2.851,12.769,6.367,12.769c3.516,0,6.365-9.253,6.365-12.769 c0-0.021-0.004-0.042-0.004-0.062h0.251c6.721-3.807,13.733-4.811,13.733-9.551C114.738,27.519,105.665,25.556,94.471,25.556z"/>
    </g>
    

    
<g id="estampa1" fill="#bf1d17" clip-path="url(#formato)" transform="translate(0, -1.8)">
    <defs>
        <pattern id="Pattern" x="4" y="-5" width="40" height="40" patternUnits="userSpaceOnUse">
            <rect x="0" y="0" width="20" height="20"/>
            <rect x="20" y="20" width="20" height="20"/>
        </pattern>
    </defs>
    <rect fill="url(#Pattern)" width="160" height="160" clip-path="url(#corte-formato)" />
</g>


    
<g id="tipo" transform="translate(2.3, -3)">
    <ellipse cx="92.052" cy="35.627" rx="19.688" ry="7.952"/>
    <ellipse fill="#4d4d4d" cx="92.052" cy="35.627" rx="19.688" ry="7.952"/>
    <path fill="#818181" d="M92.052,30.239c9.795,0,17.914,2.888,19.431,6.669c0.168-0.416,0.258-0.844,0.258-1.281 c0-4.391-8.815-7.949-19.688-7.949c-10.875,0-19.688,3.559-19.688,7.949c0,0.438,0.09,0.865,0.258,1.281 C74.138,33.127,82.257,30.239,92.052,30.239z"/>
    <path fill="#cccccc" d="M110.492,32.839c0.082,0.285,0.128,0.574,0.128,0.868c0,4.142-8.313,7.498-18.568,7.498 c-10.256,0-18.568-3.356-18.568-7.498c0-0.294,0.046-0.583,0.128-0.868c-0.806,0.868-1.248,1.808-1.248,2.788 c0,4.392,6.588,9.232,19.688,9.232c13.524,0,19.688-4.841,19.688-9.232C111.74,34.646,111.297,33.707,110.492,32.839z"/>
</g>


    
    <use xlink:href="#patrocinador-peito" x="86" y="97" transform="scale(0.85)" xmlns:xlink="http://www.w3.org/1999/xlink"/>

    
    <use xlink:href="#patrocinador-manga" x="42" y="185" transform="scale(0.4) rotate(-63 68 155)" xmlns:xlink="http://www.w3.org/1999/xlink"/>

    
    <use xlink:href="#patrocinador-manga" x="363" y="48" transform="scale(0.4) rotate(63 284 101)" xmlns:xlink="http://www.w3.org/1999/xlink"/>
</svg>
