<svg width="500px" height="525px" viewBox="0 0 500 500" xmlns="http://www.w3.org/2000/svg" preserveAspectRatio="xMidYMid meet">
    <defs>
      <clipPath id="formato">
        <circle cx="250.026" cy="249.975" r="249.475"/>
      </clipPath>
    </defs>

    <g id="fundo" fill="#0a6634" x="0">
      <circle cx="250.026" cy="249.975" r="249.475"/>
    </g>

    <g id="estampa1" fill="#ffffff" x="0" clip-path="url(#formato)"><rect x="0" y="0" transform="rotate(-45, 510, 150)" width="600" height="50"/></g>

    <g id="borda" fill="none" stroke="#000000" stroke-width="10" x="0">
      <circle cx="250.026" cy="249.975" r="249.475"/>
    </g>

    
<g id="adorno" transform="scale(2) translate(64, 65)" data-nome="gato mestre colorido">
<path d="M83.8021 59.2949H80.4004V62.7006H83.8021V59.2949Z" fill="#214001"/>
<path d="M29.398 59.2949H25.998V62.7006H29.398V59.2949Z" fill="#214001"/>
<path d="M9 49.0857V55.8937H12.4V59.2977H15.8V62.7017H19.2V66.1057H22.6V69.5113H43V66.1057H46.4V62.7017H49.8V59.2977H53.2V55.8937H56.6V52.488H63.4V55.892H66.8V59.296H70.2V62.7H73.6V66.104H77V69.5097H97.4V66.104H100.8V62.7H104.2V59.296H107.6V55.892H111V49.084H9V49.0857ZM36.1983 66.104H32.7983V62.7H29.3983V66.104H25.9983V62.7H22.6V59.296H26V55.892H22.6V52.488H26V55.892H29.4V59.296H32.8V62.7H36.2V66.104H36.1983ZM90.5983 66.104H87.1967V62.7H83.7983V66.104H80.3967V62.7H76.9967V59.296H80.3967V55.892H76.9967V52.488H80.3967V55.892H83.7983V59.296H87.1967V62.7H90.5983V66.104Z" fill="#214001"/>
<path d="M25.4473 45.202C25.4473 45.202 25.454 45.202 25.4556 45.202C25.5473 45.197 28.8823 45.0234 33.4596 45.1052C39.2557 45.2087 47.0329 45.7195 52.7207 47.4991C52.7207 47.4991 43.291 41.5526 27.615 42.5259C28.7439 41.2537 30.1629 39.828 31.8421 38.4825C32.4491 37.9966 33.1211 37.5125 33.8081 37.0467C29.5326 37.2203 26.4811 38.3556 26.4811 38.3556C30.318 33.6778 39.3941 33.7062 39.3941 33.7062C39.3308 33.6294 39.2657 33.5509 39.2024 33.4741C37.81 32.5593 33.683 31.9315 29.6143 32.409C29.6143 32.409 33.2745 29.823 36.0025 29.8664C35.799 29.6527 30.4131 26.5158 24.742 27.8364C24.742 27.8364 28.3587 25.3356 31.2935 25.379C31.2835 25.3689 31.2718 25.3606 31.2601 25.3506C31.0167 25.1519 26.9397 21.9015 22.7326 23.4808C22.7326 23.4808 24.1267 21.8714 26.7429 21.9082C24.1617 20.2337 22.059 19.4808 21.1085 20.2538C19.2276 21.7813 19.7795 34.1836 22.2007 41.7579C17.5601 31.2254 15.9343 19.4257 19.1826 17.2821C19.5878 17.015 20.1397 16.8798 20.82 16.8798C25.484 16.8798 34.6035 23.0568 41.5802 30.9416L42.6307 32.1285L44.1415 31.6477C46.3742 30.9399 47.248 30.6544 49.6558 30.2638C53.481 32.6377 54.8901 36.3956 54.8901 36.3956C54.8901 36.3956 56.4442 33.1252 57.0344 30.1669C57.0344 30.1669 57.468 34.7345 60.0009 39.4123C62.5338 34.7345 62.969 30.1669 62.969 30.1669C63.5576 33.1252 65.1117 36.3956 65.1117 36.3956C65.1117 36.3956 66.5208 32.6377 70.346 30.2638C72.7538 30.6561 73.6276 30.9399 75.8603 31.6477L77.3694 32.1285L78.4199 30.9416C85.3983 23.0568 94.5178 16.8798 99.1818 16.8798C99.8621 16.8798 100.412 17.015 100.816 17.2821C104.064 19.4257 102.438 31.2237 97.7994 41.7579C100.219 34.1836 100.769 21.7813 98.8916 20.2538C97.9412 19.4808 95.8385 20.2337 93.2572 21.9082C95.8735 21.8714 97.2675 23.4808 97.2675 23.4808C93.0621 21.9015 88.9834 25.1519 88.74 25.3506C88.7283 25.3606 88.7166 25.3689 88.7066 25.379C91.6431 25.3356 95.2582 27.8364 95.2582 27.8364C89.5871 26.5158 84.2011 29.6527 83.9977 29.8664C86.7257 29.823 90.3858 32.409 90.3858 32.409C86.3188 31.9315 82.1918 32.5593 80.7994 33.4741C80.7361 33.5509 80.6694 33.6294 80.6077 33.7062C80.6077 33.7062 89.6854 33.6778 93.5207 38.3556C93.5207 38.3556 90.4692 37.2203 86.1937 37.0467C86.8791 37.5125 87.5527 37.9983 88.1597 38.4825C89.8389 39.828 91.2579 41.2537 92.3868 42.5259C76.7108 41.5526 67.2811 47.4991 67.2811 47.4991C72.9689 45.7195 80.7461 45.2087 86.5422 45.1052C91.1195 45.025 94.4545 45.197 94.5462 45.202C94.5478 45.202 94.5545 45.202 94.5545 45.202C97.1441 45.4123 99.4069 45.7045 101.201 45.985C105.638 36.7312 111.339 18.384 103.501 13.2087C102.285 12.4073 100.833 12 99.1834 12C92.3301 12 82.5303 19.3322 75.827 26.5442C70.9046 25.1452 65.6036 24.429 60.0493 24.4057V24.404C60.0342 24.404 60.0176 24.4057 60.0009 24.4057C59.9842 24.4057 59.9675 24.404 59.9525 24.404V24.4057C54.3982 24.429 49.0989 25.1452 44.1748 26.5442C37.4732 19.3322 27.6734 12 20.82 12C19.1692 12 17.7168 12.4057 16.5029 13.2087C8.66241 18.384 14.3635 36.7312 18.8007 45.985C20.5966 45.7045 22.8577 45.4123 25.4473 45.202Z" fill="#214001"/>
<path d="M22.3799 94.2048C22.8118 93.961 23.2387 93.6839 23.6973 93.4385C24.1575 93.1948 24.626 92.9443 25.1046 92.6906C25.5848 92.4418 26.0567 92.1614 26.552 91.9126C27.0539 91.6705 27.5575 91.4218 28.0644 91.1647C29.0699 90.6422 30.1237 90.1714 31.1693 89.6856C31.6862 89.4302 32.2131 89.1964 32.7434 88.9761C33.2686 88.744 33.7939 88.5136 34.3141 88.2849C35.3663 87.8509 36.4002 87.4218 37.4023 87.0078C38.4161 86.6205 39.3833 86.2064 40.3221 85.8659C41.2542 85.5036 42.1363 85.163 42.9584 84.8609C43.7804 84.557 44.5358 84.2782 45.2045 84.0312C45.8781 83.7908 46.4651 83.5804 46.9487 83.4068C47.4089 83.2415 47.7724 83.1113 48.0325 83.0178C48.321 82.9143 48.4794 82.8575 48.4794 82.8575C48.4794 82.8575 48.3093 82.8559 48.0025 82.8659C47.7257 82.8759 47.3388 82.8943 46.8469 82.9343C46.3283 82.9711 45.7014 83.0395 44.9844 83.1313C44.2723 83.2398 43.4569 83.3333 42.5882 83.5186C42.1513 83.6021 41.6961 83.6906 41.2242 83.7824C40.7556 83.8809 40.2737 84.0061 39.7768 84.1213C38.7813 84.35 37.7525 84.6622 36.6836 84.9777C36.1884 85.1163 35.7015 85.2966 35.2012 85.4669C32.5799 85.9076 29.6352 86.5353 26.5703 87.4302C26.9422 87.8458 27.3257 88.2549 27.7159 88.6605C27.4658 88.7924 27.2173 88.926 26.9755 89.0679C25.94 89.6205 24.9395 90.2014 24.0074 90.8275C23.5405 91.1347 23.0803 91.4352 22.6301 91.7307C22.1882 92.0412 21.7713 92.3667 21.3628 92.6772C20.5491 93.3049 19.7753 93.8842 19.13 94.512C18.463 95.1096 17.8694 95.6756 17.3491 96.1747C16.8472 96.7039 16.4404 97.1897 16.0969 97.5804C15.6867 98.0562 15.3932 98.4118 15.2248 98.6205C15.113 98.759 15.0547 98.8325 15.0547 98.8325C15.0547 98.8325 15.5683 98.5186 16.422 97.9427C16.8489 97.6539 17.3642 97.3049 17.9428 96.8959C18.5531 96.5253 19.2401 96.1096 19.9671 95.6338C20.6824 95.1447 21.5279 94.7123 22.3799 94.2048Z" fill="#214001"/>
<path d="M32.7669 95.4711C33.2138 95.1055 33.674 94.76 34.1426 94.4244C34.6028 94.0805 35.063 93.7383 35.5182 93.3994C36.4454 92.7399 37.3575 92.0888 38.2429 91.4611C39.1433 90.8568 39.9954 90.2341 40.8308 89.6932C41.6579 89.1323 42.4416 88.6014 43.1753 88.1239C43.909 87.6431 44.5827 87.2024 45.178 86.8117C45.7799 86.4244 46.3052 86.0872 46.7371 85.8117C47.6092 85.2525 48.1061 84.9336 48.1061 84.9336C48.1061 84.9336 47.5224 85.0588 46.5336 85.3743C46.0367 85.5263 45.4414 85.7316 44.7628 85.9837C44.0924 86.2474 35.2831 89.2024 30.7142 91.5313C31.2178 91.9737 31.7264 92.406 32.2433 92.8251C31.9215 93.0588 31.5946 93.2875 31.2828 93.5379C30.349 94.2808 29.4002 95.0037 28.5398 95.8084C27.6544 96.5797 26.809 97.3693 26.0419 98.189C25.6551 98.5913 25.2732 98.9903 24.8997 99.3777C24.5395 99.7783 24.206 100.189 23.8775 100.583C23.2239 101.376 22.6002 102.116 22.11 102.87C21.5931 103.601 21.1428 104.287 20.746 104.892C20.3758 105.518 20.0873 106.085 19.8405 106.545C19.6888 106.83 19.5637 107.074 19.457 107.282C19.2252 107.742 19.1035 108 19.1035 108C19.1035 108 19.5321 107.58 20.2357 106.825C20.5876 106.449 21.0111 105.992 21.483 105.464C21.9966 104.965 22.5719 104.406 23.1738 103.78C23.7625 103.142 24.4895 102.531 25.2065 101.847C25.5734 101.511 25.9285 101.147 26.3204 100.803C26.7139 100.463 27.1158 100.114 27.5243 99.76C27.9378 99.411 28.333 99.0304 28.7616 98.6765C29.1968 98.3292 29.6337 97.9736 30.0672 97.6097C30.9343 96.8718 31.8564 96.1773 32.7669 95.4711Z" fill="#214001"/>
<path d="M42.329 93.8416C43.0543 93.2039 43.768 92.5745 44.46 91.9652C45.167 91.3742 45.829 90.7715 46.486 90.2356C47.1363 89.6864 47.7499 89.1655 48.3186 88.6847C49.8827 87.3859 51.0916 86.3825 51.7119 85.8667C52.0087 85.6196 52.1721 85.4844 52.1721 85.4844C52.1721 85.4844 51.9653 85.5445 51.6018 85.6747C51.4001 85.7465 51.1516 85.84 50.8598 85.9585C50.4463 86.1204 49.9527 86.3341 49.3908 86.5946C48.8388 86.8667 48.1985 87.1522 47.5415 87.5294C47.2097 87.7131 46.8612 87.9034 46.5027 88.1004C46.2742 88.2306 46.0441 88.3709 45.8123 88.5128C45.859 88.4777 45.9057 88.4426 45.9524 88.4093C43.5362 89.7114 39.6393 92.0019 35.4272 95.2072C35.8141 95.4744 36.2076 95.7281 36.6011 95.9819C36.5311 96.0587 36.4527 96.1304 36.386 96.2089C35.7007 96.9401 35.0521 97.6864 34.4734 98.4493C34.1816 98.8283 33.8932 99.2006 33.6114 99.5628C33.3429 99.9368 33.0961 100.316 32.8543 100.681C32.3741 101.416 31.9155 102.102 31.572 102.792C31.2018 103.461 30.8884 104.089 30.6115 104.641C30.5665 104.745 30.5248 104.842 30.4831 104.942C30.2947 105.389 30.143 105.795 30.0112 106.134C29.6928 106.965 29.541 107.444 29.541 107.444C29.541 107.444 29.8845 107.059 30.4331 106.373C30.7083 106.03 31.0384 105.615 31.4036 105.134C31.8055 104.678 32.2573 104.164 32.7226 103.59C33.1778 103.009 33.7497 102.439 34.305 101.807C34.5918 101.496 34.8636 101.162 35.1688 100.842C35.4756 100.523 35.7891 100.199 36.1076 99.8667C36.4294 99.5411 36.7345 99.1889 37.068 98.8567C37.4082 98.5295 37.7484 98.1922 38.0869 97.8517C38.7572 97.1622 39.4776 96.4994 40.1862 95.8266C40.8732 95.1321 41.6319 94.5111 42.329 93.8416Z" fill="#214001"/>
<path d="M103.895 97.5794C103.553 97.1888 103.144 96.7013 102.642 96.1738C102.12 95.6746 101.528 95.107 100.861 94.511C100.214 93.8833 99.4407 93.304 98.6286 92.6763C98.2201 92.3674 97.8015 92.0402 97.3613 91.7313C96.9111 91.4359 96.4509 91.1337 95.984 90.8282C95.0535 90.2005 94.053 89.6212 93.0159 89.0686C92.7741 88.9267 92.5256 88.7915 92.2772 88.6612C92.6674 88.2556 93.0509 87.8466 93.4227 87.4309C90.3562 86.536 87.4131 85.9083 84.7918 85.4676C84.2933 85.2973 83.8047 85.1153 83.3094 84.9784C82.2406 84.6629 81.2101 84.3507 80.2146 84.122C79.7177 84.0068 79.2374 83.8833 78.7689 83.7831C78.297 83.6913 77.8434 83.6028 77.4049 83.5193C76.5361 83.3357 75.7224 83.2422 75.0087 83.132C74.2917 83.0402 73.6664 82.9734 73.1461 82.9367C72.6559 82.895 72.2674 82.8766 71.9906 82.8666C71.6838 82.8566 71.5137 82.8599 71.5137 82.8599C71.5137 82.8599 71.6721 82.9167 71.9589 83.0202C72.219 83.112 72.5825 83.2439 73.0444 83.4092C73.528 83.5828 74.1149 83.7931 74.7886 84.0335C75.4573 84.2806 76.211 84.5594 77.0347 84.8632C77.8568 85.1654 78.7389 85.506 79.6693 85.8666C80.6065 86.2072 81.5769 86.6228 82.5891 87.0102C83.5913 87.4242 84.6268 87.8532 85.6789 88.2873C86.1992 88.516 86.7228 88.7464 87.2497 88.9784C87.78 89.1988 88.3069 89.4325 88.8238 89.6879C89.8693 90.1738 90.9232 90.6445 91.9287 91.1671C92.4339 91.4242 92.9392 91.6713 93.4394 91.9133C93.9363 92.1621 94.4082 92.4425 94.8885 92.6913C95.3654 92.9434 95.8356 93.1938 96.2958 93.4392C96.7544 93.6863 97.1812 93.9617 97.6131 94.2055C98.4652 94.713 99.309 95.1437 100.026 95.6329C100.753 96.1086 101.438 96.526 102.05 96.895C102.629 97.3023 103.144 97.6529 103.571 97.9417C104.425 98.5177 104.938 98.8315 104.938 98.8315C104.938 98.8315 104.878 98.7564 104.768 98.6195C104.598 98.4108 104.305 98.0552 103.895 97.5794Z" fill="#214001"/>
<path d="M100.149 106.543C99.9021 106.085 99.6136 105.518 99.2435 104.892C98.8466 104.287 98.398 103.603 97.8794 102.87C97.3892 102.114 96.7656 101.376 96.1136 100.581C95.7851 100.187 95.4516 99.7764 95.0914 99.3757C94.7179 98.9867 94.3377 98.5911 93.9509 98.1871C93.1838 97.3674 92.3384 96.5794 91.453 95.8064C90.5942 95.0001 89.6454 94.2789 88.71 93.536C88.3981 93.2856 88.073 93.0568 87.7512 92.8231C88.2681 92.4041 88.7767 91.9717 89.2786 91.5293C84.7097 89.2021 75.9003 86.2472 75.23 85.9817C74.5514 85.7313 73.9561 85.526 73.4592 85.3724C72.4703 85.0569 71.8867 84.9316 71.8867 84.9316C71.8867 84.9316 72.3853 85.2522 73.2557 85.8098C73.6876 86.0869 74.2129 86.4241 74.8148 86.8114C75.4118 87.2004 76.0838 87.6428 76.8175 88.122C77.5512 88.6011 78.3349 89.1303 79.1619 89.6912C79.999 90.2338 80.8494 90.8548 81.7515 91.4592C82.6353 92.0869 83.5474 92.7363 84.4745 93.3974C84.9314 93.7363 85.39 94.0786 85.8502 94.4225C86.3188 94.758 86.7807 95.1036 87.2259 95.4675C88.1363 96.1754 89.0585 96.8699 89.9205 97.6061C90.3558 97.9684 90.7926 98.3239 91.2279 98.6729C91.6564 99.0268 92.0516 99.4074 92.4651 99.7547C92.8737 100.109 93.2755 100.458 93.6691 100.798C94.0609 101.142 94.4161 101.506 94.7829 101.843C95.4999 102.528 96.227 103.137 96.8156 103.776C97.4176 104.401 97.9928 104.962 98.5064 105.459C98.98 105.988 99.4035 106.444 99.7537 106.82C100.457 107.574 100.886 107.995 100.886 107.995C100.886 107.995 100.764 107.736 100.532 107.279C100.426 107.072 100.299 106.828 100.149 106.543Z" fill="#214001"/>
<path d="M89.5204 104.94C89.4787 104.84 89.437 104.743 89.3904 104.639C89.1152 104.087 88.8017 103.461 88.4316 102.79C88.0881 102.1 87.6278 101.414 87.1476 100.679C86.9058 100.314 86.6607 99.9349 86.3906 99.5626C86.1088 99.1986 85.8203 98.828 85.5285 98.449C84.9499 97.6844 84.3029 96.9382 83.6159 96.207C83.5475 96.1285 83.4708 96.055 83.4008 95.9799C83.7943 95.7245 84.1878 95.4724 84.5747 95.2053C80.3609 92 76.464 89.7111 74.0495 88.4073C74.0962 88.4407 74.1412 88.4757 74.1879 88.5108C73.9561 88.3689 73.726 88.2287 73.4976 88.0985C73.1391 87.9015 72.7906 87.7111 72.4587 87.5275C71.8001 87.1519 71.1614 86.8647 70.6095 86.5926C70.0492 86.3322 69.5556 86.1202 69.1404 85.9566C68.8486 85.838 68.6002 85.7445 68.3984 85.6727C68.0332 85.5425 67.8281 85.4824 67.8281 85.4824C67.8281 85.4824 67.9915 85.6177 68.2884 85.8647C68.9087 86.3806 70.1176 87.3839 71.6817 88.6828C72.2503 89.1636 72.8639 89.6828 73.5143 90.2337C74.1729 90.7696 74.8332 91.3722 75.5419 91.9632C76.2322 92.5726 76.9459 93.2003 77.6713 93.8397C78.3683 94.5075 79.1287 95.1302 79.819 95.823C80.5277 96.4958 81.2497 97.1602 81.92 97.848C82.2585 98.1903 82.597 98.5258 82.9389 98.853C83.2724 99.1869 83.5775 99.5375 83.8993 99.8631C84.2195 100.195 84.533 100.519 84.8381 100.838C85.1433 101.159 85.4151 101.492 85.7002 101.803C86.2572 102.436 86.8291 103.005 87.2843 103.586C87.7479 104.159 88.1998 104.673 88.6016 105.129C88.9668 105.609 89.2987 106.025 89.5738 106.369C90.1224 107.055 90.4659 107.441 90.4659 107.441C90.4659 107.441 90.3141 106.96 89.9957 106.129C89.8589 105.793 89.7089 105.387 89.5204 104.94Z" fill="#214001"/>
<path d="M18.2576 88.2891C18.7278 88.1322 19.1997 87.9435 19.6966 87.7883C20.1952 87.6347 20.7038 87.4794 21.2207 87.3208C21.741 87.1689 22.2562 86.9819 22.7898 86.8334C23.3284 86.6898 23.8703 86.5429 24.4156 86.3876C25.5028 86.0654 26.6267 85.805 27.7456 85.5245C28.3008 85.3709 28.8611 85.244 29.4247 85.1272C29.9833 85.0003 30.5436 84.8751 31.0956 84.7482C32.2111 84.5195 33.3083 84.2941 34.3705 84.0788C35.4394 83.8918 36.4665 83.6681 37.4537 83.5128C38.4375 83.3342 39.3696 83.1689 40.2317 83.027C41.0988 82.8851 41.8908 82.7549 42.5945 82.6397C43.3015 82.5312 43.9185 82.4344 44.4254 82.3576C44.9874 82.2708 45.4109 82.2056 45.6844 82.1639C45.9095 82.1288 46.0329 82.1088 46.0329 82.1088C46.0329 82.1088 45.9095 82.0838 45.6844 82.0471C45.4109 82.0003 44.9857 81.9369 44.4188 81.8751C43.9018 81.8133 43.2732 81.7582 42.5512 81.7132C41.9859 81.6898 41.3606 81.6481 40.6903 81.638C40.5052 81.6364 40.3184 81.6347 40.125 81.638C39.9932 81.638 39.8515 81.6364 39.7148 81.6364C39.2445 80.3676 39.3229 79.1706 39.5714 78.204L36.068 78.416C35.2459 78.4995 32.9164 79.7616 27.6872 79.0587C23.2184 78.4577 19.2181 75.1155 17.4789 71.416C18.7762 75.8618 20.9222 80.1355 23.8437 84.0871C23.8103 84.0988 23.777 84.1088 23.7436 84.1188C22.6231 84.4677 21.5292 84.845 20.4987 85.2841C19.9818 85.4961 19.4732 85.7048 18.9746 85.9085C18.4827 86.1272 18.0125 86.3693 17.5522 86.5963C16.6351 87.0571 15.7664 87.4811 15.011 87.9719C14.244 88.4327 13.5536 88.8734 12.9483 89.2691C12.3564 89.6898 11.8611 90.0921 11.4526 90.411C10.6872 91.0137 10.247 91.3909 10.1953 91.4377C10.212 91.4344 10.282 91.406 10.3887 91.3659C10.6305 91.2708 11.0824 91.0921 11.6994 90.8267C12.1729 90.6247 12.7449 90.3793 13.3919 90.0871C14.0639 89.84 14.8142 89.5612 15.6196 89.234C16.4134 88.8884 17.3238 88.6263 18.2576 88.2891Z" fill="#214001"/>
<path d="M107.053 89.2669C106.447 88.8729 105.755 88.4305 104.988 87.9697C104.235 87.4789 103.364 87.0548 102.449 86.5924C101.989 86.367 101.517 86.125 101.026 85.9046C100.528 85.7026 100.019 85.4939 99.5024 85.2802C98.4702 84.8428 97.3763 84.4638 96.2558 84.1149C96.2224 84.1032 96.1874 84.0949 96.1557 84.0832C99.0772 80.1316 101.222 75.8578 102.521 71.4121C100.783 75.1116 96.7827 78.4538 92.3138 79.0548C87.0846 79.7577 84.7535 78.4939 83.9314 78.4121C84.0181 78.4104 84.1031 78.4104 84.1882 78.4104L80.2529 78.1717C80.3146 78.1817 80.368 78.1951 80.4297 78.2018C80.6765 79.1684 80.7565 80.3654 80.2846 81.6341C80.1495 81.6341 80.0061 81.6358 79.8744 81.6358C79.6826 81.6325 79.4942 81.6341 79.3091 81.6358C78.6371 81.6458 78.0135 81.6876 77.4482 81.7109C76.7245 81.7577 76.0976 81.8111 75.5806 81.8729C75.0137 81.9346 74.5885 81.9981 74.3133 82.0448C74.0899 82.0816 73.9648 82.1066 73.9648 82.1066C73.9648 82.1066 74.0899 82.1266 74.3133 82.1617C74.5868 82.2034 75.0087 82.2702 75.574 82.3553C76.0809 82.4321 76.6978 82.529 77.4032 82.6375C78.1069 82.7527 78.9006 82.8829 79.7677 83.0248C80.6298 83.165 81.5619 83.3303 82.5457 83.5089C83.5312 83.6659 84.56 83.8879 85.6289 84.0765C86.6911 84.2919 87.7883 84.5173 88.9038 84.7443C89.4574 84.8712 90.0177 84.9964 90.5763 85.1233C91.1383 85.2401 91.7002 85.3687 92.2555 85.5206C93.3744 85.8011 94.4982 86.0632 95.5838 86.3837C96.1274 86.539 96.6726 86.6876 97.2096 86.8295C97.7448 86.978 98.2584 87.165 98.777 87.3153C99.2939 87.4739 99.8025 87.6291 100.301 87.7827C100.8 87.9396 101.27 88.1266 101.74 88.2852C102.674 88.6208 103.584 88.8845 104.381 89.2285C105.187 89.5557 105.939 89.8345 106.609 90.0815C107.254 90.3737 107.826 90.6174 108.302 90.8211C108.917 91.0849 109.369 91.2652 109.611 91.3603C109.719 91.4004 109.789 91.4271 109.806 91.4305C109.754 91.3837 109.312 91.0081 108.548 90.4038C108.14 90.0899 107.645 89.6876 107.053 89.2669Z" fill="#214001"/>
<path d="M67.9605 88.4082C67.1651 88.1812 66.3797 87.9141 65.661 87.5301C64.954 87.1361 64.262 86.7154 63.6867 86.1995C63.0814 85.7104 62.5795 85.1561 62.121 84.6136C61.9142 84.3314 61.6941 84.061 61.5123 83.7872C61.3389 83.5084 61.1572 83.2429 61.0088 82.9775C60.9387 82.8506 60.8754 82.7338 60.8103 82.6102C63.8885 78.1762 66.945 78.1294 67.2118 76.4667C67.2168 76.4683 67.2268 76.4733 67.2318 76.475L68.6758 71.6603L66.9383 69.0176L64.9724 74.1611C63.6884 73.5234 62.5545 73.7321 60.0449 73.7204V73.7188H59.9482V73.7204C57.4387 73.7321 56.3048 73.5217 55.0208 74.1611L53.0548 69.0176L51.3157 71.6603L52.7597 76.475C52.7664 76.4733 52.7764 76.4683 52.7814 76.4667C53.0465 78.1294 56.1047 78.1762 59.1812 82.6102C59.1178 82.7338 59.0545 82.849 58.9844 82.9775C58.836 83.2413 58.6543 83.5067 58.4808 83.7872C58.3008 84.061 58.079 84.3314 57.8739 84.6136C57.4137 85.1561 56.9134 85.7087 56.3064 86.1995C55.7312 86.7154 55.0392 87.1361 54.3321 87.5301C53.6118 87.9141 52.8281 88.1812 52.031 88.4082C51.6775 88.49 51.319 88.5535 50.9588 88.6019C48.6093 90.1661 44.1688 93.3798 39.8184 97.899C46.2232 101.382 53.1816 103.311 59.9432 103.361V103.365C59.9582 103.365 59.9749 103.363 59.9916 103.363C60.0066 103.363 60.0233 103.365 60.0399 103.365V103.361C66.7999 103.311 73.76 101.382 80.1648 97.899C75.8143 93.3798 71.3738 90.1661 69.0243 88.6019C68.6725 88.5535 68.314 88.4917 67.9605 88.4082ZM69.3328 94.9708C66.4431 98.9074 61.0404 98.9975 60.0016 99.061C58.9611 98.9975 53.5601 98.9074 50.6703 94.9708C50.3569 94.5418 50.0117 92.9508 50.0117 92.9508C51.1122 92.8907 52.2044 92.7187 53.2333 92.3665C53.8086 92.1511 54.3872 91.9458 54.9058 91.6386C55.1676 91.49 55.436 91.3598 55.6828 91.1979C55.9279 91.0343 56.1647 90.8606 56.3998 90.692C56.5983 90.5401 56.76 90.3465 56.9701 90.2212C57.6671 89.8072 58.5359 89.086 60.0016 89.086C61.2472 89.086 62.3377 89.8089 63.0331 90.2212C63.2432 90.3465 63.4066 90.5401 63.6017 90.692C63.8368 90.8606 64.0736 91.0343 64.3187 91.1979C64.5655 91.3598 64.834 91.49 65.0958 91.6386C65.6143 91.9458 66.193 92.1511 66.7682 92.3665C67.7954 92.7204 68.8893 92.8907 69.9898 92.9508C69.9898 92.9508 69.648 94.5418 69.3328 94.9708Z" fill="#214001"/>
<path d="M51.3209 71.6624L48.7363 63.7559H49.8002L53.0585 69.018L51.3209 71.6624Z" fill="#214001"/>
<path d="M68.6731 71.6624L71.2593 63.7559H70.1938L66.9355 69.018L68.6731 71.6624Z" fill="#214001"/>
<path d="M46.0325 74.1553C46.0325 74.1553 41.8955 74.9666 39.7361 73.172C39.7361 73.172 41.2268 73.4207 43.1911 73.1236C42.8376 72.9717 42.4874 72.8097 42.169 72.6411C41.4303 72.2521 40.7933 71.8247 40.2297 71.4141H36.201H36.1493H17.4785L18.1722 72.7246L18.9176 74.6661L22.5994 79.7413L28.9675 83.6228L34.185 82.2488L38.0086 80.0234C38.257 81.0234 38.5588 81.7296 38.8773 81.8999C39.3792 82.1687 40.2714 81.6394 41.3019 80.6495C40.1113 80.8965 39.3342 80.2855 39.3342 80.2855C41.3902 80.6361 42.9643 78.7947 43.0577 78.6812C43.0611 78.6762 43.0661 78.6712 43.0694 78.6662C41.7337 78.9433 39.8662 78.1219 39.8662 78.1219C42.5675 78.2254 44.7469 76.3206 44.8219 76.2054C43.5813 76.4658 41.6854 75.6077 41.6854 75.6077C43.5813 75.4675 45.4089 74.8181 45.9641 74.2772C45.9875 74.2371 46.0108 74.1954 46.0325 74.1553Z" fill="#214001"/>
<path d="M83.8341 71.416H83.784H79.7537C79.1918 71.8267 78.5531 72.2541 77.8144 72.6431C77.496 72.81 77.1458 72.9736 76.7923 73.1255C78.7566 73.4227 80.2473 73.1739 80.2473 73.1739C78.0862 74.9686 73.9492 74.1572 73.9492 74.1572C73.9709 74.1973 73.9942 74.239 74.0176 74.2791C74.5729 74.82 76.4004 75.4678 78.2947 75.6097C78.2947 75.6097 76.3988 76.4678 75.1581 76.2073C75.2315 76.3225 77.4126 78.2274 80.1139 78.1239C80.1139 78.1239 78.2447 78.9469 76.9107 78.6681C76.914 78.6731 76.9207 78.6781 76.9223 78.6831C77.0157 78.7966 78.5898 80.638 80.6458 80.2875C80.6458 80.2875 79.8688 80.8985 78.6782 80.6514C79.7087 81.6431 80.6008 82.1706 81.1027 81.9018C81.4195 81.7315 81.7214 81.0237 81.9698 80.0254L85.7934 82.2507L91.0109 83.6247L97.3774 79.7432L101.059 74.6681L101.805 72.7265L102.5 71.416H83.8341Z" fill="#214001"/>
</g>

</svg>
