<svg width="500px" height="525px" viewBox="0 0 500 500" xmlns="http://www.w3.org/2000/svg" preserveAspectRatio="xMidYMid meet">
    <defs>
      <clipPath id="formato">
        <path d="M454.05,128.223C335.565,115.063,249.995-0.117,249.995-0.117s-85.55,115.18-204.04,128.34 c0,0-62.53,263.285,204.04,371.896C516.565,391.508,454.05,128.223,454.05,128.223z"/>
      </clipPath>
    </defs>

    <g id="fundo" fill="#ffffff" x="0">
      <path d="M454.05,128.223C335.565,115.063,249.995-0.117,249.995-0.117s-85.55,115.18-204.04,128.34 c0,0-62.53,263.285,204.04,371.896C516.565,391.508,454.05,128.223,454.05,128.223z"/>
    </g>

    <g id="estampa1" fill="#ff241d" x="0" clip-path="url(#formato)"><rect x="300" width="50" height="100%"/><rect y="150" width="100%" height="50"/></g>

    <g id="borda" fill="none" stroke="#fce37e" stroke-width="10" x="0">
      <path d="M454.05,128.223C335.565,115.063,249.995-0.117,249.995-0.117s-85.55,115.18-204.04,128.34 c0,0-62.53,263.285,204.04,371.896C516.565,391.508,454.05,128.223,454.05,128.223z"/>
    </g>

    <g id="adorno" transform="scale(3) translate(37, 65)">
    <path id="svg_2" d="m49.749,44.276l2.517,1.508c-0.332,0.115 -0.673,0.217 -1.016,0.312c-0.197,-0.131 -0.434,-0.209 -0.692,-0.209c-0.322,0 -0.627,0.133 -0.847,0.332c-0.221,-0.19901 -0.518,-0.332 -0.845,-0.332c-0.32899,0 -0.625,0.133 -0.852,0.332c-0.219,-0.19901 -0.514,-0.332 -0.845,-0.332c-0.33,0 -0.627,0.133 -0.845,0.332c-0.228,-0.19901 -0.522,-0.332 -0.854,-0.332c-0.324,0 -0.622,0.133 -0.845,0.332c-0.227,-0.19901 -0.522,-0.332 -0.845,-0.332c-0.331,0 -0.627,0.133 -0.852,0.332c-0.22,-0.19901 -0.516,-0.332 -0.847,-0.332c-0.329,0 -0.627,0.133 -0.847,0.332c-0.226,-0.19901 -0.521,-0.332 -0.85,-0.332c-0.291,0 -0.557,0.1 -0.76801,0.27c-0.086,-0.02 -0.17,-0.045 -0.252,-0.062c-0.15,-0.107 -0.327,-0.174 -0.518,-0.195l2.329,-1.72301l8.574,0.09901z" fill="#859894"/>
    <path id="svg_3" d="m67.044,27.159c0,0.141 -0.002,0.277 -0.005,0.413c0,0.005 0,0.009 0,0.009c-0.354,3.043 -1.326,5.891 -2.793,8.425l-0.686,-2.113l2.32,-8.166l1.04501,-0.543c0.07999,0.649 0.119,1.307 0.119,1.975z" fill="#859894"/>
    <polygon id="svg_4" points="61.64600372314453,18.21200180053711 65.88099670410156,25.726001739501953 63.560997009277344,33.89200210571289 55.99800109863281,37.518001556396484 50.957000732421875,30.98300552368164 54.808998107910156,20.282001495361328 " fill="#B2C0BB"/>
    <path id="svg_5" d="m50.957,30.98301l5.041,6.535l-5.636,6.092c-5.899,-0.07401 -11.05,-3.258 -13.889,-7.986l3.188,-4.64201h11.296l0,0.00101z" fill="#859894"/>
    <path id="svg_6" d="m36.338,20.282l-0.627,-0.179c1.928,-4.051 5.459,-7.191 9.77,-8.597l0.09499,2.521l-9.238,6.255z" fill="#B2C0BB"/>
    <path id="svg_7" d="m25.147,25.726l1.93,8.166l-0.538,2.341c-1.95,-3.26801 -3.074,-7.094 -3.074,-11.18101l1.682,0.674z" fill="#B2C0BB"/>
    <path id="svg_8" d="m36.338,20.282l3.32401,10.701l-3.188,4.642c-1.491,-2.474 -2.346,-5.368 -2.346,-8.466c0,-2.525 0.57,-4.918 1.583,-7.056l0.627,0.179z" fill="#B2C0BB"/>
    <path id="svg_9" d="m49.749,44.276l-8.57,-0.10001l-6.149,-6.45499l1.444,-2.098c2.839,4.728 7.989,7.91199 13.889,7.986l-0.614,0.667z" fill="#859894"/>
    <path id="svg_10" d="m38.44,4.298l-0.992,1.862l-6.756,4.54h-1.851c2.542,-2.921 5.84599,-5.157 9.599,-6.402z" fill="#B2C0BB"/>
    <path id="svg_11" d="m36.474,35.625l-1.444,2.098l-7.952,-3.83l-1.93,-8.166l3.688,-7.565l6.876,1.942c-1.013,2.138 -1.583,4.53 -1.583,7.056c-0.001,3.096 0.853,5.991 2.345,8.465z" fill="#FFFFFF"/>
    <path id="svg_12" d="m60.936,14.366l0.71101,3.846l-6.83801,2.07l-9.233,-6.255l-0.09499,-2.521c1.609,-0.526 3.324,-0.806 5.106,-0.806c3.922,0 7.523,1.369 10.349,3.666z" fill="#B2C0BB"/>
    <path id="svg_13" d="m45.323,7.071l0.15701,4.435c-4.311,1.406 -7.842,4.546 -9.77,8.597l-6.876,-1.942l1.857,-7.461l6.756,-4.54l7.876,0.911z" fill="#FFFFFF"/>
    <path id="svg_14" d="m60.231,10.55l0.70399,3.816c-2.825,-2.297 -6.42699,-3.666 -10.349,-3.666c-1.782,0 -3.497,0.28 -5.106,0.806l-0.15701,-4.435l8.159,-0.911l6.749,4.39z" fill="#FFFFFF"/>
    <path id="svg_15" d="m61.808,10.7l-1.576,-0.15l-6.749,-4.39l-0.45,-1.565c3.415,1.285 6.422,3.4 8.775,6.105z" fill="#B2C0BB"/>
    <path id="svg_16" d="m50.587,43.616c4.844,0 9.204,-2.092 12.211,-5.426c-2.63,3.495 -6.295,6.176 -10.532,7.594l-2.517,-1.508l0.613,-0.666c0.074,0.006 0.151,0.006 0.225,0.006z" fill="#859894"/>
    <path id="svg_17" d="m63.561,33.892l0.686,2.113c-0.438,0.754 -0.922,1.49 -1.448,2.185c-3.007,3.334 -7.367,5.426 -12.21101,5.426c-0.074,0 -0.151,0 -0.225,-0.006l5.636,-6.092l7.562,-3.626z" fill="#47170E"/>
    <path id="svg_18" d="m66.926,25.183l-1.04501,0.543l-4.23399,-7.515l-0.71101,-3.846c3.247,2.629 5.467,6.462 5.99001,10.818z" fill="#47170E"/>
    <path id="svg_19" d="m67.185,25.052l-0.259,0.131c-0.522,-4.356 -2.743,-8.189 -5.99001,-10.817l-0.70399,-3.816l1.576,0.15c3.349,3.839 5.377,8.855 5.377,14.352" fill="#723D1A"/>
    <polygon id="svg_20" points="54.808998107910156,20.282001495361328 50.957000732421875,30.98300552368164 39.66200256347656,30.98300552368164 36.33799743652344,20.282001495361328 45.57499694824219,14.02700424194336 " fill="#47170E"/>
    <path id="svg_21" d="m53.033,4.595l0.44901,1.565l-8.159,0.911l-7.875,-0.911l0.992,-1.862c2.16199,-0.719 4.479,-1.105 6.883,-1.105c2.719,0 5.317,0.492 7.71,1.402z" fill="#723D1A"/>
    <path id="svg_22" d="m30.692,10.7l-1.857,7.461l-3.688,7.565l-1.683,-0.674c0,-5.49699 2.032,-10.514 5.377,-14.353h1.851l0,0.001z" fill="#723D1A"/>
    <path id="svg_23" d="m35.029,37.722l6.149,6.45499l-2.329,1.72301c-0.051,-0.006 -0.101,-0.012 -0.152,-0.012h-0.002c-5.137,-1.62901 -9.447,-5.109 -12.156,-9.655l0.538,-2.341l7.952,3.83z" fill="#47170E"/>
    <path id="svg_24" d="m49.749,44.276l-8.57,-0.10001l-2.366,1.75l-0.014,0.082c1.59499,0.486 3.231,0.807 4.883,0.916l-0.005,0.008l0.00999,-0.008c2.911,0.203 5.85001,-0.188 8.634,-1.15l-2.572,-1.49799z" fill="#859894"/>
    <path id="svg_25" d="m84.063,31.72001l-2.425,-9.273c-7.41,4.698 -20.917,7.846 -36.35,7.846s-28.93899,-3.147 -36.352,-7.846l-2.423,9.273c6.583,5.666 21.464,9.62299 38.774,9.62299c17.311,0 32.193,-3.95699 38.776,-9.62299z" fill="#D18A00"/>
    <path id="svg_26" d="m20.823,18.615c-6.104,-1.369 -11.227,-3.308 -14.874,-5.617l-2.42,9.27399c3.312,2.855 8.729,5.269 15.5,6.972l1.794,-10.629z" fill="#D18A00"/>
    <path id="svg_27" d="m12.308,14.084c-2.334,-0.992 -4.346,-2.776 -5.586,-5.218c-1.449,-2.868 -1.544,-6.066 -0.521,-8.866c-3.122,2.918 -4.339,7.437 -2.997,11.576c-1.146,-0.401 -2.236,-0.984 -3.204,-1.74c0.048,1.585 0.436,3.189 1.196,4.698c1.73,3.412 4.976,5.556 8.505,6.017l2.607,-6.467z" fill="#D18A00"/>
    <path id="svg_28" d="m69.83,18.615c6.098,-1.369 11.221,-3.308 14.867,-5.617l2.425,9.27399c-3.311,2.855 -8.733,5.269 -15.505,6.972l-1.78699,-10.629z" fill="#C3882B"/>
    <path id="svg_29" d="m78.339,14.084c2.33501,-0.992 4.35101,-2.776 5.584,-5.218c1.456,-2.868 1.547,-6.066 0.524,-8.866c3.12,2.918 4.342,7.437 3.002,11.576c1.14301,-0.401 2.23,-0.984 3.202,-1.74c-0.046,1.585 -0.436,3.189 -1.201,4.698c-1.729,3.412 -4.976,5.556 -8.504,6.017l-2.607,-6.467z" fill="#C3882B"/>
    <path id="svg_30" d="m45.289,41.343c17.309,0 32.191,-3.95699 38.774,-9.62299l-2.425,-9.273c-6.252,3.964 -16.843,6.814 -29.265,7.614c-1.362,1.294 -2.861,2.43 -4.596,3.311c-2.349,1.189 -5.039,1.75999 -7.357,3.014c-1.458,0.792 -3.57,2.5 -5.068,4.506c3.188,0.291 6.513,0.451 9.937,0.451z" fill="#C3882B"/>
</g>
</svg>
