<svg width="500px" height="525px" viewBox="0 0 500 500" xmlns="http://www.w3.org/2000/svg" preserveAspectRatio="xMidYMid meet">
    <defs>
      <clipPath id="formato">
        <path d="M454.05,128.223C335.565,115.063,249.995-0.117,249.995-0.117s-85.55,115.18-204.04,128.34 c0,0-62.53,263.285,204.04,371.896C516.565,391.508,454.05,128.223,454.05,128.223z"/>
      </clipPath>
    </defs>

    <g id="fundo" fill="#47ffed" x="0">
      <path d="M454.05,128.223C335.565,115.063,249.995-0.117,249.995-0.117s-85.55,115.18-204.04,128.34 c0,0-62.53,263.285,204.04,371.896C516.565,391.508,454.05,128.223,454.05,128.223z"/>
    </g>

    <g id="estampa1" fill="#000000" x="0" clip-path="url(#formato)"><defs><pattern id="Pattern" x="0" y="0" width="200" height="200" patternUnits="userSpaceOnUse"><rect x="100" y="0" width="100" height="100"/><rect x="0" y="100" width="100" height="100"/></pattern></defs><rect fill="url(#Pattern)" x="0" y="0" width="500" height="500" clip-path="url(#corte-formato)" /></g>

    <g id="borda" fill="none" stroke="#bf1d17" stroke-width="10" x="0">
      <path d="M454.05,128.223C335.565,115.063,249.995-0.117,249.995-0.117s-85.55,115.18-204.04,128.34 c0,0-62.53,263.285,204.04,371.896C516.565,391.508,454.05,128.223,454.05,128.223z"/>
    </g>

    
<g id="adorno"></g>

</svg>
